<?xml version="1.0" encoding="utf-8" ?>
<svg baseProfile="full" height="29.7cm" version="1.1" width="21.0cm" xmlns="http://www.w3.org/2000/svg" xmlns:ev="http://www.w3.org/2001/xml-events" xmlns:xlink="http://www.w3.org/1999/xlink"><defs><g id="marker"><rect fill="white" height="12.2cm" stroke="black" width="12.2cm" x="0cm" y="0cm" /><rect fill="none" height="7.8cm" stroke="black" width="7.8cm" x="2.2cm" y="2.2cm" /><circle cx="1.1cm" cy="1.1cm" r="0.9cm" /><circle cx="1.1cm" cy="11.1cm" r="0.9cm" /><circle cx="11.1cm" cy="1.1cm" r="0.9cm" /><circle cx="11.1cm" cy="11.1cm" r="0.9cm" /><circle cx="5.1cm" cy="1.1cm" r="0.9cm" /><circle cx="1.1cm" cy="5.1cm" r="0.9cm" /><circle cx="7.1cm" cy="1.1cm" r="0.9cm" /><circle cx="1.1cm" cy="7.1cm" r="0.9cm" /><circle cx="4.1cm" cy="11.1cm" r="0.9cm" /><circle cx="11.1cm" cy="4.1cm" r="0.9cm" /><circle cx="8.1cm" cy="11.1cm" r="0.9cm" /><circle cx="11.1cm" cy="8.1cm" r="0.9cm" /><circle cx="6.1cm" cy="6.1cm" fill="red" r="0.05cm" /><line stroke="rgb(10%,10%,16%)" x1="6.1cm" x2="8.1cm" y1="6.1cm" y2="6.1cm" /><line stroke="rgb(10%,10%,16%)" x1="6.1cm" x2="6.1cm" y1="6.1cm" y2="4.1cm" /><text fill="black" x="8.2cm" y="6.1cm">x</text><text fill="black" x="6.1cm" y="3.9cm">y</text></g></defs><rect fill="white" height="29.7cm" stroke="none" width="21.0cm" x="0" y="0" /><use x="4.4cm" xlink:href="#marker" y="8.75cm" /></svg>