<?xml version="1.0" encoding="utf-8" ?>
<svg baseProfile="full" height="29.7cm" version="1.1" width="21.0cm" xmlns="http://www.w3.org/2000/svg" xmlns:ev="http://www.w3.org/2001/xml-events" xmlns:xlink="http://www.w3.org/1999/xlink"><defs><g id="marker"><rect fill="white" height="12.2cm" stroke="black" width="12.2cm" x="0cm" y="0cm" /><rect fill="none" height="7.8cm" stroke="black" width="7.8cm" x="2.2cm" y="2.2cm" /><circle cx="1.1cm" cy="1.1cm" r="0.9cm" /><circle cx="1.1cm" cy="11.1cm" r="0.9cm" /><circle cx="11.1cm" cy="1.1cm" r="0.9cm" /><circle cx="11.1cm" cy="11.1cm" r="0.9cm" /><circle cx="5.1cm" cy="1.1cm" r="0.9cm" /><circle cx="1.1cm" cy="5.1cm" r="0.9cm" /><circle cx="7.1cm" cy="1.1cm" r="0.9cm" /><circle cx="1.1cm" cy="7.1cm" r="0.9cm" /><circle cx="4.1cm" cy="11.1cm" r="0.9cm" /><circle cx="11.1cm" cy="4.1cm" r="0.9cm" /><circle cx="8.1cm" cy="11.1cm" r="0.9cm" /><circle cx="11.1cm" cy="8.1cm" r="0.9cm" /><text fill="black" textLength="10cm" x="4.1cm" y="13.2cm">| AB | BD | CD |</text><text fill="black" x="4.1cm" y="13.7cm">| 4.000cm | 6.000cm | 4.000cm |</text><text fill="black" x="4.1cm" y="14.2cm">| 3.000cm | 7.000cm | 3.000cm |</text><text fill="black" x="1.1cm" y="13.7cm">Line Top:</text><text fill="black" x="1.1cm" y="14.2cm">Line Bottom:</text><text fill="black" x="1.1cm" y="15.2cm">Marker Size = 10.0cm</text><text fill="black" x="1.1cm" y="15.7cm">Circle Radius = 0.9cm</text><text fill="black" x="1.1cm" y="16.2cm">Circle Clearance = 0.2cm</text><text fill="black" x="1.1cm" y="16.7cm">Cross-ratio 0: AB = 0.40,  AC= 0.60, CR= 0.4444</text><text fill="black" x="1.1cm" y="17.2cm">Cross-ratio 1: AB = 0.30,  AC= 0.70, CR= 0.1837</text><circle cx="6.1cm" cy="6.1cm" fill="red" r="0.05cm" /><line stroke="rgb(10%,10%,16%)" x1="6.1cm" x2="8.1cm" y1="6.1cm" y2="6.1cm" /><line stroke="rgb(10%,10%,16%)" x1="6.1cm" x2="6.1cm" y1="6.1cm" y2="4.1cm" /><text fill="black" x="8.2cm" y="6.1cm">x</text><text fill="black" x="6.1cm" y="3.9cm">y</text></g></defs><rect fill="white" height="29.7cm" stroke="none" width="21.0cm" x="0" y="0" /><use x="4.4cm" xlink:href="#marker" y="8.75cm" /></svg>